<?xml version="1.0" standalone="no"?>
<!DOCTYPE svg PUBLIC "-//W3C//DTD SVG 20010904//EN"
 "http://www.w3.org/TR/2001/REC-SVG-20010904/DTD/svg10.dtd">
<svg version="1.0" xmlns="http://www.w3.org/2000/svg"
 width="512.000000pt" height="512.000000pt" viewBox="0 0 512.000000 512.000000"
 preserveAspectRatio="xMidYMid meet">
<metadata>
Created by potrace 1.14, written by Peter Selinger 2001-2017
</metadata>
<g transform="translate(0.000000,512.000000) scale(0.100000,-0.100000)"
fill="#000000" stroke="none">
<path d="M2379 5116 c-2 -2 -38 -7 -79 -10 -82 -8 -115 -12 -145 -19 -38 -8
-120 -20 -127 -19 -5 1 -8 -2 -8 -6 0 -4 -10 -8 -22 -9 -45 -1 -190 -42 -338
-96 -150 -54 -400 -183 -513 -263 -26 -19 -49 -34 -52 -34 -3 0 -13 -6 -22
-14 -10 -8 -64 -51 -120 -95 -126 -99 -373 -345 -373 -371 0 -5 -3 -10 -8 -12
-4 -1 -26 -28 -49 -58 -24 -30 -46 -59 -51 -65 -4 -5 -26 -39 -49 -75 -23 -36
-47 -70 -53 -77 -36 -42 -191 -373 -226 -483 -9 -30 -21 -61 -27 -67 -5 -7 -7
-13 -3 -13 3 0 0 -16 -8 -35 -8 -19 -13 -35 -11 -35 2 0 -2 -18 -10 -39 -7
-22 -16 -56 -19 -76 -4 -21 -8 -40 -10 -44 -2 -3 -7 -24 -10 -46 -4 -22 -9
-48 -12 -59 -3 -10 -8 -37 -10 -60 -2 -22 -7 -70 -11 -106 -16 -129 -8 -510
12 -630 29 -172 48 -259 71 -329 8 -24 12 -46 9 -49 -2 -3 -1 -10 4 -16 4 -6
22 -53 40 -105 76 -223 202 -459 364 -678 34 -46 65 -83 69 -83 4 0 8 -4 8
-10 0 -16 198 -223 286 -300 152 -131 346 -261 534 -356 74 -38 137 -69 140
-70 3 0 12 -4 20 -7 110 -49 389 -132 505 -151 17 -2 44 -7 60 -10 198 -37
597 -43 780 -11 17 3 44 7 60 10 38 6 66 12 135 26 30 6 62 13 70 14 8 2 15 4
15 5 0 2 19 7 57 15 47 9 260 86 328 118 36 17 67 31 70 32 14 3 162 82 218
116 35 22 68 39 72 39 5 0 10 4 12 8 2 5 31 27 65 50 173 117 369 296 515 472
51 61 48 56 103 135 27 39 53 72 57 73 5 2 8 7 8 12 0 4 24 46 53 92 28 46 61
103 72 128 11 25 22 47 25 50 7 6 62 129 90 200 52 131 108 321 102 343 -1 4
3 7 8 7 6 0 10 6 9 13 -2 6 0 26 4 42 4 17 9 44 12 60 2 17 7 41 10 55 36 162
40 534 9 775 -6 46 -12 80 -14 80 -1 0 -4 16 -7 35 -19 138 -105 415 -178 576
-51 112 -157 310 -174 324 -3 3 -10 13 -16 22 -27 45 -106 156 -120 168 -8 7
-15 18 -15 24 0 6 -9 17 -20 24 -11 7 -20 17 -20 22 0 6 -15 25 -32 44 -18 18
-74 75 -124 127 -112 116 -133 134 -264 233 -58 43 -108 84 -112 90 -4 6 -8 8
-8 3 0 -7 -49 20 -60 34 -7 8 -135 81 -207 118 -35 17 -89 44 -120 60 -59 29
-353 134 -353 126 0 -3 -17 2 -37 10 -21 7 -54 16 -73 19 -19 3 -69 12 -110
21 -41 8 -100 18 -130 21 -30 3 -62 8 -70 11 -16 6 -445 14 -451 9z"/>
</g>
</svg>
